<mxfile host="Electron" modified="2025-05-02T14:01:36.767Z" agent="Mozilla/5.0 (Windows NT 10.0; Win64; x64) AppleWebKit/537.36 (KHTML, like Gecko) draw.io/24.6.4 Chrome/124.0.6367.207 Electron/30.0.6 Safari/537.36" etag="EeOOelJCBUTRmhstPGMn" version="24.6.4" type="device">
  <diagram name="Страница — 1" id="H0fnMuuXgLZo9D4dqB9F">
    <mxGraphModel dx="1500" dy="899" grid="1" gridSize="10" guides="1" tooltips="1" connect="1" arrows="1" fold="1" page="1" pageScale="1" pageWidth="1169" pageHeight="827" math="0" shadow="0">
      <root>
        <mxCell id="0" />
        <mxCell id="1" parent="0" />
        <mxCell id="BTkQICznWu5b2SkcchoW-19" value="" style="ellipse;whiteSpace=wrap;html=1;fillColor=default;fontSize=21;fontFamily=isocpeur;" vertex="1" parent="1">
          <mxGeometry x="644.3800000000001" y="150" width="230" height="57.5" as="geometry" />
        </mxCell>
        <mxCell id="BTkQICznWu5b2SkcchoW-5" value="" style="ellipse;whiteSpace=wrap;html=1;fillColor=default;fontSize=21;fontFamily=isocpeur;" vertex="1" parent="1">
          <mxGeometry x="320" y="150" width="230" height="57.5" as="geometry" />
        </mxCell>
        <mxCell id="naLeFJOA4xzYUaONAAyw-107" value="&lt;font style=&quot;font-size: 21px;&quot;&gt;Пользователь&lt;/font&gt;" style="shape=umlActor;verticalLabelPosition=bottom;verticalAlign=top;html=1;fontSize=21;fontFamily=isocpeur;" parent="1" vertex="1">
          <mxGeometry x="40" y="207.5" width="110" height="221" as="geometry" />
        </mxCell>
        <mxCell id="BTkQICznWu5b2SkcchoW-2" value="&lt;font style=&quot;font-size: 21px;&quot;&gt;Авторизация&lt;/font&gt;" style="text;html=1;align=center;verticalAlign=middle;whiteSpace=wrap;rounded=0;fontSize=21;fontFamily=isocpeur;" vertex="1" parent="1">
          <mxGeometry x="360" y="163.75" width="150" height="30" as="geometry" />
        </mxCell>
        <mxCell id="BTkQICznWu5b2SkcchoW-3" value="&lt;font style=&quot;font-size: 21px;&quot;&gt;Доступно после авторизации&lt;/font&gt;" style="html=1;whiteSpace=wrap;fontSize=21;fontFamily=isocpeur;" vertex="1" parent="1">
          <mxGeometry x="220" y="432.5" width="155" height="80" as="geometry" />
        </mxCell>
        <mxCell id="BTkQICznWu5b2SkcchoW-7" value="" style="endArrow=none;html=1;rounded=0;fontSize=21;fontFamily=isocpeur;entryX=0;entryY=0.5;entryDx=0;entryDy=0;" edge="1" parent="1" target="BTkQICznWu5b2SkcchoW-5">
          <mxGeometry width="50" height="50" relative="1" as="geometry">
            <mxPoint x="160" y="270" as="sourcePoint" />
            <mxPoint x="510" y="227.5" as="targetPoint" />
          </mxGeometry>
        </mxCell>
        <mxCell id="BTkQICznWu5b2SkcchoW-8" value="&lt;font style=&quot;font-size: 15px;&quot;&gt;&amp;lt;&amp;lt;include&amp;gt;&amp;gt;&lt;/font&gt;" style="html=1;verticalAlign=bottom;endArrow=open;dashed=1;endSize=8;curved=0;rounded=0;fontFamily=isocpeur;" edge="1" parent="1">
          <mxGeometry relative="1" as="geometry">
            <mxPoint x="550" y="178.14" as="sourcePoint" />
            <mxPoint x="645" y="178.14" as="targetPoint" />
          </mxGeometry>
        </mxCell>
        <mxCell id="BTkQICznWu5b2SkcchoW-10" value="&lt;font style=&quot;font-size: 21px;&quot;&gt;Заполнение формы&lt;/font&gt;" style="text;html=1;align=center;verticalAlign=middle;whiteSpace=wrap;rounded=0;fontSize=21;fontFamily=isocpeur;" vertex="1" parent="1">
          <mxGeometry x="668.7600000000002" y="163.75" width="181.25" height="30" as="geometry" />
        </mxCell>
        <mxCell id="BTkQICznWu5b2SkcchoW-23" value="" style="ellipse;whiteSpace=wrap;html=1;fillColor=default;fontSize=21;fontFamily=isocpeur;" vertex="1" parent="1">
          <mxGeometry x="510" y="289.25" width="230" height="57.5" as="geometry" />
        </mxCell>
        <mxCell id="BTkQICznWu5b2SkcchoW-24" value="&lt;font style=&quot;font-size: 21px;&quot;&gt;Прохождение теста&lt;/font&gt;" style="text;html=1;align=center;verticalAlign=middle;whiteSpace=wrap;rounded=0;fontSize=21;fontFamily=isocpeur;" vertex="1" parent="1">
          <mxGeometry x="540" y="303" width="181.25" height="30" as="geometry" />
        </mxCell>
        <mxCell id="BTkQICznWu5b2SkcchoW-32" value="&lt;font style=&quot;font-size: 15px;&quot;&gt;&amp;lt;&amp;lt;include&amp;gt;&amp;gt;&lt;/font&gt;" style="html=1;verticalAlign=bottom;endArrow=open;dashed=1;endSize=8;curved=0;rounded=0;exitX=1;exitY=0.5;exitDx=0;exitDy=0;fontFamily=isocpeur;entryX=0;entryY=0.5;entryDx=0;entryDy=0;" edge="1" parent="1" source="BTkQICznWu5b2SkcchoW-23" target="BTkQICznWu5b2SkcchoW-48">
          <mxGeometry x="-0.0914" y="7" relative="1" as="geometry">
            <mxPoint x="1410" y="446.97" as="sourcePoint" />
            <mxPoint x="910" y="317.75" as="targetPoint" />
            <mxPoint as="offset" />
          </mxGeometry>
        </mxCell>
        <mxCell id="BTkQICznWu5b2SkcchoW-37" value="" style="ellipse;whiteSpace=wrap;html=1;fillColor=default;fontSize=21;fontFamily=isocpeur;" vertex="1" parent="1">
          <mxGeometry x="510.0000000000002" y="382.5" width="230" height="57.5" as="geometry" />
        </mxCell>
        <mxCell id="BTkQICznWu5b2SkcchoW-38" value="&lt;font style=&quot;font-size: 21px;&quot;&gt;Таблица результатов&lt;/font&gt;" style="text;html=1;align=center;verticalAlign=middle;whiteSpace=wrap;rounded=0;fontSize=21;fontFamily=isocpeur;" vertex="1" parent="1">
          <mxGeometry x="534.3800000000001" y="396.25" width="185.62" height="30" as="geometry" />
        </mxCell>
        <mxCell id="BTkQICznWu5b2SkcchoW-46" value="" style="line;strokeWidth=1;fillColor=none;align=left;verticalAlign=middle;spacingTop=-1;spacingLeft=3;spacingRight=3;rotatable=0;labelPosition=right;points=[];portConstraint=eastwest;strokeColor=inherit;fontSize=21;fontFamily=isocpeur;" vertex="1" parent="1">
          <mxGeometry x="162.5" y="368.75" width="287.5" height="8" as="geometry" />
        </mxCell>
        <mxCell id="BTkQICznWu5b2SkcchoW-47" value="" style="endArrow=none;html=1;rounded=0;fontSize=21;fontFamily=isocpeur;exitX=0.998;exitY=0.462;exitDx=0;exitDy=0;exitPerimeter=0;entryX=0;entryY=0.5;entryDx=0;entryDy=0;" edge="1" parent="1" source="BTkQICznWu5b2SkcchoW-46" target="BTkQICznWu5b2SkcchoW-23">
          <mxGeometry width="50" height="50" relative="1" as="geometry">
            <mxPoint x="455" y="383.75" as="sourcePoint" />
            <mxPoint x="520" y="278.75" as="targetPoint" />
          </mxGeometry>
        </mxCell>
        <mxCell id="BTkQICznWu5b2SkcchoW-48" value="" style="ellipse;whiteSpace=wrap;html=1;fillColor=default;fontSize=21;fontFamily=isocpeur;" vertex="1" parent="1">
          <mxGeometry x="920" y="238.75" width="230" height="57.5" as="geometry" />
        </mxCell>
        <mxCell id="BTkQICznWu5b2SkcchoW-49" value="&lt;font style=&quot;font-size: 21px;&quot;&gt;Выбор уровня сложности&lt;/font&gt;" style="text;html=1;align=center;verticalAlign=middle;whiteSpace=wrap;rounded=0;fontSize=21;fontFamily=isocpeur;" vertex="1" parent="1">
          <mxGeometry x="958.75" y="252.5" width="161.25" height="30" as="geometry" />
        </mxCell>
        <mxCell id="BTkQICznWu5b2SkcchoW-50" value="" style="ellipse;whiteSpace=wrap;html=1;fillColor=default;fontSize=21;fontFamily=isocpeur;" vertex="1" parent="1">
          <mxGeometry x="920" y="325" width="230" height="57.5" as="geometry" />
        </mxCell>
        <mxCell id="BTkQICznWu5b2SkcchoW-51" value="&lt;font style=&quot;font-size: 21px;&quot;&gt;Выбор вида спорта&lt;/font&gt;" style="text;html=1;align=center;verticalAlign=middle;whiteSpace=wrap;rounded=0;fontSize=21;fontFamily=isocpeur;" vertex="1" parent="1">
          <mxGeometry x="949.3800000000001" y="338.75" width="180" height="30" as="geometry" />
        </mxCell>
        <mxCell id="BTkQICznWu5b2SkcchoW-52" value="&lt;font style=&quot;font-size: 15px;&quot;&gt;&amp;lt;&amp;lt;include&amp;gt;&amp;gt;&lt;/font&gt;" style="html=1;verticalAlign=bottom;endArrow=open;dashed=1;endSize=8;curved=0;rounded=0;fontFamily=isocpeur;" edge="1" parent="1">
          <mxGeometry x="-0.1712" y="-28" relative="1" as="geometry">
            <mxPoint x="740" y="318.75" as="sourcePoint" />
            <mxPoint x="920" y="348.75" as="targetPoint" />
            <mxPoint as="offset" />
          </mxGeometry>
        </mxCell>
        <mxCell id="BTkQICznWu5b2SkcchoW-54" value="" style="endArrow=none;html=1;rounded=0;fontSize=21;fontFamily=isocpeur;exitX=0.997;exitY=0.552;exitDx=0;exitDy=0;exitPerimeter=0;" edge="1" parent="1" source="BTkQICznWu5b2SkcchoW-46">
          <mxGeometry width="50" height="50" relative="1" as="geometry">
            <mxPoint x="450" y="368.75" as="sourcePoint" />
            <mxPoint x="510" y="408.75" as="targetPoint" />
          </mxGeometry>
        </mxCell>
        <mxCell id="BTkQICznWu5b2SkcchoW-56" value="" style="endArrow=none;dashed=1;html=1;rounded=0;entryX=0.5;entryY=0;entryDx=0;entryDy=0;" edge="1" parent="1" target="BTkQICznWu5b2SkcchoW-3">
          <mxGeometry width="50" height="50" relative="1" as="geometry">
            <mxPoint x="297.36" y="374.38" as="sourcePoint" />
            <mxPoint x="297.36000000000007" y="448.13" as="targetPoint" />
          </mxGeometry>
        </mxCell>
      </root>
    </mxGraphModel>
  </diagram>
</mxfile>
